<svg width="371" height="362" viewBox="0 0 371 362" fill="none" xmlns="http://www.w3.org/2000/svg">
<rect x="0.451904" width="370.226" height="361.594" fill="#B2EFF8"/>
<g clip-path="url(#clip0_1_792)">
<g opacity="0.9">
<path d="M180.84 204.752C180.219 216.981 164.806 229.179 146.658 239.942C125.931 250.269 112.6 262.748 114.838 279.812C117.386 307.89 139.449 322.99 169.467 331.725V348.135H209.491V332.286C245.196 324.144 263.53 306.517 264.121 279.188C265.457 262.092 253.99 250.113 236.091 240.753C220.771 233.703 197.527 214.548 196.657 204.658L194.482 121.205H206.632V118.304H169.747V121.361H181.275L180.871 204.658L180.84 204.752Z" fill="url(#paint0_radial_1_792)"/>
<path d="M185.066 107.821L184.321 133.778C184.321 137.615 192.214 137.615 192.214 133.778L191.033 107.665C206.011 106.137 212.847 97.9943 212.412 84.0179C211.169 71.1958 201.66 63.802 187.273 63.3029C171.642 64.0516 163.376 72.3501 163.252 85.297C163.998 102.393 172.885 107.572 185.035 107.821H185.066Z" fill="url(#paint1_radial_1_792)"/>
</g>
</g>
<defs>
<radialGradient id="paint0_radial_1_792" cx="0" cy="0" r="1" gradientUnits="userSpaceOnUse" gradientTransform="translate(189.417 233.266) scale(96.6736 97.055)">
<stop offset="0.29" stop-color="white" stop-opacity="0.8"/>
<stop offset="0.35" stop-color="#E4EFC8" stop-opacity="0.78"/>
<stop offset="0.54" stop-color="#95C11F" stop-opacity="0.73"/>
<stop offset="0.56" stop-color="#88BC20" stop-opacity="0.75"/>
<stop offset="0.71" stop-color="#269A30" stop-opacity="0.93"/>
<stop offset="0.79" stop-color="#008D36"/>
<stop offset="0.88" stop-color="#007334"/>
<stop offset="0.95" stop-color="#006633"/>
</radialGradient>
<radialGradient id="paint1_radial_1_792" cx="0" cy="0" r="1" gradientUnits="userSpaceOnUse" gradientTransform="translate(187.832 100.091) rotate(-180) scale(28.0294 36.582)">
<stop stop-color="white" stop-opacity="0.8"/>
<stop offset="0.09" stop-color="#E4EFC8" stop-opacity="0.78"/>
<stop offset="0.39" stop-color="#95C11F" stop-opacity="0.73"/>
<stop offset="0.41" stop-color="#88BC20" stop-opacity="0.75"/>
<stop offset="0.59" stop-color="#269A30" stop-opacity="0.93"/>
<stop offset="0.67" stop-color="#008D36"/>
<stop offset="0.71" stop-color="#008435"/>
<stop offset="0.83" stop-color="#006C34"/>
<stop offset="0.88" stop-color="#005F33"/>
<stop offset="0.96" stop-color="#005033"/>
</radialGradient>
<clipPath id="clip0_1_792">
<rect width="149.625" height="284.863" fill="white" transform="translate(114.589 63.3029)"/>
</clipPath>
</defs>
</svg>
