<svg width="386" height="59" viewBox="0 0 386 59" fill="none" xmlns="http://www.w3.org/2000/svg">
<g clip-path="url(#clip0_1_10)">
<path d="M9.06667 52.8432C9.06667 54.307 9.42475 55.5126 10.1409 56.4455C10.8571 57.3783 12.1605 57.8519 14.0512 57.8519H16.4862C18.5631 57.8519 20.7116 57.5505 22.9174 56.9334C25.1518 56.3163 27.1284 55.4982 28.8329 54.4936C30.5374 53.4746 32.027 52.2547 33.3161 50.8052C34.5479 49.4131 35.3071 47.8631 35.5935 46.1266L35.9946 46.2127L34.0323 58.2681H0.716156V57.8663C0.959653 57.8663 1.18883 57.5362 1.38935 56.8617C1.6042 56.1728 1.79041 55.2543 1.94796 54.1348C2.07687 53.202 2.22011 51.8098 2.34902 49.9728C2.44928 48.552 2.50658 46.8298 2.50658 44.8062V14.28C2.50658 12.2565 2.44928 10.5342 2.34902 9.11342C2.22011 7.31945 2.07687 5.95604 1.94796 4.98012C1.79041 3.86068 1.6042 2.92782 1.38935 2.18153C1.20315 1.52135 0.973976 1.17691 0.716156 1.17691V0.818115H10.8714V1.17691C10.6279 1.17691 10.4131 1.507 10.2269 2.18153C9.95472 3.08569 9.75419 4.01855 9.62528 4.98012C9.49637 5.94169 9.35314 7.31945 9.22423 9.11342C9.12396 10.5342 9.06667 12.2565 9.06667 14.28V52.8575V52.8432Z" fill="white" stroke="white" stroke-miterlimit="10"/>
<path d="M110.003 0.818037L138.507 50.1163V14.28C138.507 12.5147 138.249 10.7925 137.748 9.11334C137.289 7.59206 136.745 6.21429 136.115 4.98004C135.47 3.74579 134.869 2.81293 134.31 2.18145C133.723 1.52127 133.322 1.17683 133.107 1.17683V0.818037H144.222V1.17683C144.007 1.17683 143.62 1.50692 143.062 2.18145C142.474 2.89904 141.858 3.8319 141.228 4.98004C140.641 6.04207 140.097 7.41984 139.595 9.11334C139.137 10.6346 138.922 12.3568 138.922 14.28V44.8061C138.922 46.7292 139.151 48.4515 139.595 49.9727C140.125 51.7093 140.67 53.1014 141.228 54.1348C141.844 55.2542 142.46 56.1583 143.062 56.8616C143.649 57.5361 144.036 57.8662 144.222 57.8662V58.268H135.628L107.239 8.95547V44.8061C107.239 46.7292 107.468 48.4515 107.912 49.9727C108.442 51.7093 108.986 53.1014 109.545 54.1348C110.204 55.3403 110.805 56.2445 111.35 56.8616C111.937 57.5361 112.338 57.8662 112.553 57.8662V58.268H101.567V57.8662C101.782 57.8662 102.183 57.5361 102.77 56.8616C103.357 56.2014 103.945 55.2829 104.532 54.1348C105.09 53.044 105.62 51.6519 106.136 49.9727C106.594 48.4515 106.809 46.7292 106.809 44.8061V14.28C106.809 12.3568 106.58 10.6346 106.136 9.11334C105.649 7.4916 105.119 6.11383 104.532 4.98004C103.916 3.7745 103.329 2.84163 102.77 2.18145C102.211 1.52127 101.81 1.17683 101.567 1.17683V0.818037C103.458 0.818037 104.876 0.818037 105.807 0.774982C106.738 0.746278 108.141 0.774982 110.003 0.818037Z" fill="white" stroke="white" stroke-miterlimit="10"/>
<path d="M196.502 38.9936C196.502 36.3529 196.273 34.2431 195.829 32.6645C195.328 30.8992 194.783 29.5501 194.225 28.6173C193.58 27.5552 192.993 26.8233 192.463 26.4502C191.904 26.0483 191.503 25.8474 191.26 25.8474V25.4455H202.976V41.7491C201.744 44.3611 200.197 46.7435 198.292 48.8819C196.402 51.0203 194.11 52.8574 191.417 54.4073C187.98 56.3879 184.385 57.5791 180.617 58.0096C176.908 58.4402 173.255 58.1675 169.66 57.2059C166.036 56.2157 162.728 54.637 159.748 52.4412C156.683 50.1736 154.177 47.3319 152.229 43.9162C150.252 40.4431 149.034 36.8121 148.547 33.0233C148.06 29.3061 148.318 25.6465 149.307 22.0155C150.266 18.4849 151.885 15.1984 154.177 12.1271C156.411 9.11325 159.276 6.61605 162.771 4.63551C165.965 2.76978 169.288 1.57859 172.725 1.07628C176.249 0.545263 179.643 0.631373 182.924 1.36331C186.275 2.0809 189.412 3.3582 192.32 5.16652C195.285 7.00355 197.806 9.34288 199.911 12.1702L195.356 16.7771C193.279 13.6053 190.93 10.9503 188.323 8.84057C185.688 6.70216 182.895 5.09476 179.973 3.98968C177.094 2.89895 174.172 2.41099 171.221 2.55451C168.256 2.68367 165.506 3.48737 162.942 4.95125C160.25 6.47253 158.115 8.53918 156.54 11.1656C154.964 13.7489 153.947 16.691 153.46 19.9775C152.973 23.2354 153.102 26.6367 153.818 30.196C154.535 33.7265 155.881 37.1996 157.858 40.644C159.834 44.0597 162.155 46.9444 164.847 49.2981C167.598 51.6805 170.462 53.4745 173.441 54.7087C176.449 55.943 179.5 56.517 182.594 56.4309C185.659 56.3448 188.51 55.5555 191.145 54.0342C193.279 52.8287 195.055 51.2643 196.459 49.3412V39.0079L196.502 38.9936Z" fill="white" stroke="white" stroke-miterlimit="10"/>
<path d="M257.219 28.4164V44.7917C257.219 46.8153 257.276 48.5375 257.376 49.9584C257.505 51.7954 257.648 53.1875 257.777 54.1204C257.935 55.2398 258.121 56.144 258.336 56.8472C258.551 57.5217 258.78 57.8518 259.009 57.8518V58.2537H248.94V57.8518C249.155 57.8518 249.37 57.5217 249.584 56.8472C249.799 56.1583 249.985 55.2398 250.143 54.1204C250.329 52.757 250.472 51.3648 250.587 49.9584C250.687 48.5375 250.745 46.8153 250.745 44.7917V29.6937L240.747 12.3855C239.916 10.9503 239.057 9.57257 238.154 8.26656C237.009 6.61611 236.135 5.41057 235.519 4.66428C234.659 3.6166 233.829 2.76985 232.998 2.09531C232.225 1.47819 231.537 1.1768 230.921 1.1768V0.81801H243.554V1.1768C243.368 1.1768 243.239 1.27727 243.153 1.49254C243.067 1.67911 243.096 2.05226 243.239 2.61198C243.325 3.01383 243.597 3.76012 244.084 4.85085C244.371 5.51103 244.987 6.71657 245.918 8.45313L257.076 27.7132L265.469 13.1318C266.715 10.9647 267.532 9.17072 267.904 7.7212C268.305 6.25732 268.477 5.00872 268.42 3.98974C268.391 3.05688 268.205 2.33929 267.861 1.82263C267.575 1.36338 267.288 1.1481 267.016 1.1481V0.789307H278.002V1.1481C277.758 1.1481 277.271 1.30597 276.527 1.62171C275.782 1.93745 274.865 2.54022 273.762 3.43003C272.616 4.36289 271.413 5.55408 270.167 6.98926C268.735 8.63971 267.388 10.5628 266.128 12.7587L257.219 28.3734V28.4164Z" fill="white" stroke="white" stroke-miterlimit="10"/>
<path d="M306.262 36.9414H286.753L282.27 49.8724C281.44 52.226 281.253 54.1205 281.712 55.5556C282.199 57.0769 283.029 57.8376 284.233 57.8376V58.2394H274.564V57.8376C275.252 57.8376 275.982 57.5649 276.727 57.0339C277.601 56.388 278.317 55.7422 278.847 55.0677C279.563 54.1922 280.15 53.3311 280.609 52.4987C281.038 51.7524 281.425 50.8913 281.769 49.9298L298.871 0.818115H299.315L315.902 43.9881C317.549 48.308 319.096 51.6807 320.542 54.0774C322.061 56.589 323.163 57.8376 323.865 57.8376V58.2394H311.189V57.8376C311.404 57.8376 311.547 57.4931 311.633 56.7899C311.719 56.0436 311.705 55.1251 311.59 54.02C311.461 52.7427 311.203 51.3649 310.831 49.9011C310.344 48.064 309.843 46.3705 309.313 44.8492L306.276 36.9127L306.262 36.9414ZM286.925 36.5109H306.119L296.049 10.2759L286.94 36.5109H286.925Z" fill="white" stroke="white" stroke-miterlimit="10"/>
<path d="M342.357 4.62129C345.852 2.61205 349.433 1.4065 353.114 0.975948C356.823 0.545396 360.462 0.818079 364.028 1.77965C367.623 2.74121 370.932 4.36296 373.94 6.63053C377.062 8.98422 379.583 11.8402 381.488 15.1985C383.436 18.6429 384.639 22.2452 385.083 26.0197C385.513 29.7655 385.241 33.4252 384.281 37.0275C383.35 40.5293 381.746 43.8159 379.483 46.8872C377.22 49.9584 374.384 52.47 370.975 54.4218C367.566 56.3736 363.971 57.5792 360.175 58.0672C356.494 58.5551 352.841 58.2968 349.218 57.3065C345.594 56.3162 342.299 54.7232 339.349 52.4987C336.312 50.2311 333.82 47.3751 331.872 43.9307C329.895 40.4576 328.678 36.8409 328.191 33.0808C327.704 29.3924 327.962 25.7327 328.95 22.1017C329.91 18.4994 331.528 15.1842 333.791 12.1703C336.112 9.09903 338.962 6.58748 342.342 4.63564L342.357 4.62129ZM342.529 5.02314C339.865 6.57313 337.745 8.63978 336.169 11.2374C334.551 13.9069 333.519 16.849 333.09 20.0494C332.66 23.3073 332.789 26.7086 333.448 30.2678C334.107 33.7697 335.453 37.2571 337.444 40.7159C339.421 44.1316 341.741 47.0163 344.434 49.37C347.184 51.7524 350.048 53.5464 353.028 54.7806C356.036 56.0149 359.072 56.5889 362.137 56.5028C365.203 56.4167 368.067 55.6274 370.731 54.1061C373.367 52.6135 375.501 50.5181 377.134 47.82C378.709 45.2367 379.726 42.2946 380.213 39.0081C380.7 35.7789 380.572 32.3919 379.855 28.8327C379.168 25.3308 377.821 21.8577 375.816 18.4133C373.84 14.9976 371.519 12.1129 368.826 9.75921C366.033 7.33377 363.169 5.5111 360.232 4.30555C357.224 3.0713 354.188 2.49723 351.123 2.58334C348.115 2.66945 345.25 3.47315 342.529 5.02314Z" fill="white" stroke="white" stroke-miterlimit="10"/>
<path d="M49.4299 9.54395C69.9266 30.6697 68.8094 30.3253 69.0242 15.6004C68.8094 30.3253 67.6922 30.641 88.7761 10.1037C67.6922 30.641 68.0359 29.5216 82.7317 29.7368C68.0359 29.5216 67.7208 28.4021 88.2175 49.5279C67.7208 28.4021 68.838 28.7466 68.6232 43.4715C68.838 28.7466 69.9552 28.4308 48.8713 48.9682C69.9552 28.4308 69.6115 29.5503 54.9157 29.335C69.6115 29.5503 69.9266 30.6697 49.4299 9.54395Z" fill="white"/>
<path d="M49.4299 9.54395C69.9266 30.6697 68.8094 30.3253 69.0242 15.6004C68.8094 30.3253 67.6922 30.641 88.7761 10.1037C67.6922 30.641 68.0359 29.5216 82.7317 29.7368C68.0359 29.5216 67.7208 28.4021 88.2175 49.5279C67.7208 28.4021 68.838 28.7466 68.6232 43.4715C68.838 28.7466 69.9553 28.4308 48.8713 48.9682C69.9553 28.4308 69.6115 29.5503 54.9157 29.335C69.6115 29.5503 69.9266 30.6697 49.4299 9.54395Z" stroke="white" stroke-miterlimit="10"/>
<path d="M54.5147 4.62129C58.0096 2.61205 61.5904 1.4065 65.2715 0.975948C68.9813 0.545396 72.6194 0.818079 76.1859 1.77965C79.7811 2.74121 83.0898 4.36296 86.0977 6.63053C89.2201 8.98422 91.7411 11.8402 93.6461 15.1985C95.594 18.6429 96.7972 22.2452 97.2412 26.0197C97.6709 29.7655 97.3988 33.4252 96.4391 37.0275C95.5081 40.5293 93.9039 43.8159 91.6408 46.8872C89.3777 49.9584 86.5417 52.47 83.1327 54.4218C79.7238 56.3736 76.1286 57.5792 72.3329 58.0672C68.6518 58.5551 64.9994 58.2968 61.3756 57.3065C57.7517 56.3162 54.4574 54.7232 51.5068 52.4987C48.4702 50.2311 45.978 47.3751 44.03 43.9307C42.0534 40.4576 40.8359 36.8409 40.3489 33.0808C39.8619 29.3924 40.1197 25.7327 41.108 22.1017C42.0677 18.4994 43.6862 15.1842 45.9493 12.1703C48.2697 9.09903 51.12 6.58748 54.5003 4.63564L54.5147 4.62129ZM54.6722 5.02314C52.0081 6.57313 49.8882 8.63978 48.3127 11.2374C46.6941 13.9069 45.6628 16.849 45.2331 20.0494C44.8034 23.3073 44.9323 26.7086 45.5912 30.2678C46.2501 33.7697 47.5965 37.2571 49.5874 40.7159C51.5641 44.1316 53.8844 47.0163 56.5772 49.37C59.3273 51.7524 62.192 53.5464 65.1712 54.7806C68.1791 56.0149 71.2157 56.5889 74.2809 56.5028C77.3461 56.4167 80.2108 55.6274 82.8749 54.1061C85.5104 52.6135 87.6446 50.5181 89.2774 47.82C90.853 45.2367 91.87 42.2946 92.357 39.0081C92.844 35.7789 92.7151 32.3919 91.9989 28.8327C91.3114 25.3308 89.965 21.8577 87.9597 18.4133C85.9831 14.9976 83.6627 12.1129 80.9699 9.75921C78.1768 7.33377 75.3122 5.5111 72.3759 4.30555C69.368 3.0713 66.3314 2.49723 63.2662 2.58334C60.2583 2.66945 57.3937 3.47315 54.6722 5.02314Z" fill="white" stroke="white" stroke-miterlimit="10"/>
</g>
<defs>
<clipPath id="clip0_1_10">
<rect width="386" height="59" fill="white"/>
</clipPath>
</defs>
</svg>
