<svg width="371" height="363" viewBox="0 0 371 363" fill="none" xmlns="http://www.w3.org/2000/svg">
<rect x="0.677856" y="0.59375" width="370.226" height="361.594" fill="#B2EFF8"/>
<g clip-path="url(#clip0_1_803)">
<path opacity="0.9" d="M187.605 158.561L186.993 189.567C186.993 191.147 194.206 191.147 194.206 189.567L193.089 158.561C199.152 157.229 202.923 154.094 204.47 149.205C204.975 145.945 204.644 142.678 203.651 139.815C198.978 124.378 195.33 107.477 194.578 90.6257L192.22 19.0584C191.881 16.2705 188.424 16.0802 187.928 19.0584L185.794 90.7332C185.256 108.28 182.402 124.552 177.597 140.014C176.513 143.157 176.125 146.392 176.836 149.883C178.722 154.441 182.361 157.287 187.605 158.553V158.561Z" fill="url(#paint0_radial_1_803)"/>
<path opacity="0.9" d="M235.628 252.961C227.621 251.331 220.185 248.833 213.304 245.516C205.669 241.644 201.501 235.117 200.078 226.497C197.001 207.089 196.976 186.523 199.21 165.08H218.217V161.672H161.046V165.08H180.053C182.287 186.515 182.262 207.089 179.185 226.497C177.754 235.125 173.594 241.652 165.959 245.516C159.078 248.833 151.642 251.323 143.635 252.961C123.652 258.645 125.174 285.225 143.635 294.308C155.91 300.703 169.152 303.375 172.833 309.414C176.902 315.056 177.018 321.261 177.117 327.267C175.314 329.236 172.014 334.514 174.644 338.195C165.322 340.867 157.101 344.615 150.244 349.711H229.019C222.162 344.615 213.941 340.859 204.619 338.195C207.258 334.505 203.949 329.236 202.146 327.267C202.245 321.261 202.361 315.056 206.43 309.414C210.111 303.375 223.353 300.703 235.628 294.308C254.089 285.225 255.611 258.636 235.628 252.961Z" fill="url(#paint1_radial_1_803)"/>
</g>
<defs>
<radialGradient id="paint0_radial_1_803" cx="0" cy="0" r="1" gradientUnits="userSpaceOnUse" gradientTransform="translate(192.262 119.034) scale(62.2576 62.2687)">
<stop offset="0.09" stop-color="white" stop-opacity="0.8"/>
<stop offset="0.19" stop-color="#FBDDB0" stop-opacity="0.86"/>
<stop offset="0.37" stop-color="#F5A732" stop-opacity="0.96"/>
<stop offset="0.45" stop-color="#F39200"/>
<stop offset="0.61" stop-color="#ED6A0F"/>
<stop offset="0.74" stop-color="#E94E1B"/>
<stop offset="0.75" stop-color="#E84B1C"/>
<stop offset="0.96" stop-color="#E6332A"/>
</radialGradient>
<radialGradient id="paint1_radial_1_803" cx="0" cy="0" r="1" gradientUnits="userSpaceOnUse" gradientTransform="translate(189.632 255.699) scale(79.0151 79.0293)">
<stop offset="0.08" stop-color="white" stop-opacity="0.8"/>
<stop offset="0.18" stop-color="#FBDDB0" stop-opacity="0.86"/>
<stop offset="0.35" stop-color="#F5A732" stop-opacity="0.96"/>
<stop offset="0.43" stop-color="#F39200"/>
<stop offset="0.6" stop-color="#ED6A0F"/>
<stop offset="0.74" stop-color="#E94E1B"/>
<stop offset="0.75" stop-color="#E84B1C"/>
<stop offset="0.96" stop-color="#E6332A"/>
</radialGradient>
<clipPath id="clip0_1_803">
<rect width="120.851" height="332.82" fill="white" transform="translate(129.202 16.8992)"/>
</clipPath>
</defs>
</svg>
