<svg width="371" height="362" viewBox="0 0 371 362" fill="none" xmlns="http://www.w3.org/2000/svg">
<rect width="370.226" height="361.594" fill="#B2EFF8"/>
<g clip-path="url(#clip0_1_769)">
<path d="M194.219 347.738H160.936C99.594 321.882 120.327 265.068 157.548 239.306C165.989 233.103 171.47 225.228 173.674 216.259C176.419 207.875 175.999 166.303 176.462 133.968H165.868V132.796H197.17V133.933H186.336C186.868 166.338 186.825 207.72 188.883 216.293C190.968 223.798 194.888 231.509 203.432 239.858C248.673 280.43 242.763 330.782 194.219 347.729V347.738Z" fill="url(#paint0_radial_1_769)"/>
<path d="M179.156 129.35L178.658 154.818C178.658 156.119 184.56 156.119 184.56 154.818L183.642 129.35C188.6 128.255 191.68 125.679 192.949 121.664C193.361 118.985 193.095 116.305 192.28 113.953C188.455 101.27 185.478 87.39 184.86 73.5528L182.93 14.7749C182.656 12.483 179.825 12.328 179.422 14.7749L177.68 73.639C177.243 88.0535 174.91 101.417 170.972 114.117C170.089 116.701 169.771 119.355 170.355 122.224C171.899 125.972 174.875 128.307 179.156 129.35Z" fill="url(#paint1_radial_1_769)"/>
</g>
<defs>
<radialGradient id="paint0_radial_1_769" cx="0" cy="0" r="1" gradientUnits="userSpaceOnUse" gradientTransform="translate(178.307 256.633) scale(82.6071 82.9715)">
<stop offset="0.16" stop-color="white"/>
<stop offset="0.24" stop-color="#F1D7DF"/>
<stop offset="0.48" stop-color="#CB6487"/>
<stop offset="0.64" stop-color="#B31C4E"/>
<stop offset="0.71" stop-color="#AA0039"/>
<stop offset="0.83" stop-color="#9E0139"/>
<stop offset="1" stop-color="#91033A"/>
</radialGradient>
<radialGradient id="paint1_radial_1_769" cx="0" cy="0" r="1" gradientUnits="userSpaceOnUse" gradientTransform="translate(181.601 84.3917) scale(50.9196 51.1442)">
<stop offset="0.04" stop-color="white"/>
<stop offset="0.13" stop-color="#F1D7DF"/>
<stop offset="0.42" stop-color="#CB6487"/>
<stop offset="0.62" stop-color="#B31C4E"/>
<stop offset="0.71" stop-color="#AA0039"/>
<stop offset="0.73" stop-color="#A50039"/>
<stop offset="0.91" stop-color="#830239"/>
<stop offset="1" stop-color="#76033A"/>
</radialGradient>
<clipPath id="clip0_1_769">
<rect width="112.219" height="334.738" fill="white" transform="translate(122 13)"/>
</clipPath>
</defs>
</svg>
