<svg width="56" height="55" viewBox="0 0 56 55" fill="none" xmlns="http://www.w3.org/2000/svg">
<path d="M4.47354 3.85C0.623536 7.73667 0.623535 13.9517 0.623535 26.4V28.6C0.623535 41.03 0.623536 47.245 4.47354 51.15C8.3602 55 14.5752 55 27.0235 55H29.2235C41.6535 55 47.8685 55 51.7735 51.15C55.6235 47.2633 55.6235 41.0483 55.6235 28.6V26.4C55.6235 13.97 55.6235 7.755 51.7735 3.85C47.8869 5.46376e-07 41.6719 0 29.2235 0H27.0235C14.5935 0 8.37854 5.46376e-07 4.47354 3.85Z" fill="white"/>
<path fill-rule="evenodd" clip-rule="evenodd" d="M41.5951 14.8978H41.5531L41.5512 14.896L41.2515 14.9526C37.5117 15.7834 33.9551 17.0653 30.8873 18.6229C28.1065 19.7283 22.5493 22.0175 14.2158 25.4906C12.8629 26.0056 12.154 26.5089 12.0891 27.0007C11.9817 27.8323 13.068 28.1601 14.5489 28.6068C14.7082 28.6549 14.872 28.7043 15.0394 28.7558C16.4652 29.2578 17.9673 29.6102 19.6221 29.8019H19.6336C20.8019 29.7544 21.8748 29.349 22.7243 28.7081C30.5106 23.6816 34.5298 21.141 34.7818 21.0862L34.7779 21.0881C34.8543 21.0607 34.9364 21.0442 35.0223 21.0442C35.1521 21.0442 35.2762 21.0789 35.3755 21.141C35.4652 21.2396 35.5206 21.3693 35.5206 21.5117C35.5206 21.5519 35.5167 21.5902 35.5091 21.6249C35.4002 22.0636 31.1467 25.8472 28.9283 27.8206C28.2288 28.4427 27.7317 28.885 27.6305 28.9856C27.4071 29.2075 27.1793 29.4175 26.9603 29.6193C25.6041 30.8696 24.5849 31.8091 27.0158 33.3389C28.191 34.0798 29.13 34.6916 30.0685 35.3032C31.0799 35.9622 32.0907 36.6209 33.3958 37.4402C33.7306 37.6501 34.0502 37.8681 34.3616 38.0805C35.5453 38.888 36.6086 39.6134 37.9221 39.4963C38.6857 39.4305 39.4742 38.7439 39.8751 36.6933C40.8219 31.8507 42.6851 21.3601 43.1147 17.0343V17.0507C43.1242 16.9338 43.128 16.817 43.128 16.6983C43.128 16.4372 43.107 16.1815 43.0689 15.9587V15.9533C43.0326 15.6611 42.8837 15.4018 42.6622 15.2174L42.668 15.221C42.3644 15.0165 41.9941 14.8978 41.5951 14.8978ZM15.0565 28.7611C15.0508 28.7594 15.0451 28.7576 15.0394 28.7558L15.0565 28.7611ZM15.1798 28.7994C15.1385 28.7865 15.0974 28.7737 15.0565 28.7611L15.1798 28.7994Z" fill="black"/>
</svg>
