<svg width="896" height="1156" viewBox="0 0 896 1156" fill="none" xmlns="http://www.w3.org/2000/svg">
<path d="M777.091 639.328C367.228 375.034 386.422 376.42 437.895 614.778C386.433 376.42 403.343 367.239 139.049 777.102C403.343 367.239 401.957 386.433 163.599 437.906C401.957 386.444 411.138 403.354 1.27515 139.06C411.138 403.354 391.944 401.968 340.472 163.61C391.933 401.968 375.023 411.149 639.317 1.28613C375.023 411.149 376.409 391.955 614.767 340.483C376.409 391.944 367.228 375.034 777.091 639.328Z" fill="url(#paint0_radial_130_3)"/>
<path d="M777.091 639.328C367.228 375.034 386.422 376.42 437.895 614.778C386.433 376.42 403.343 367.239 139.049 777.102C403.343 367.239 401.957 386.433 163.599 437.906C401.957 386.444 411.138 403.354 1.27515 139.06C411.138 403.354 391.944 401.968 340.472 163.61C391.933 401.968 375.023 411.149 639.317 1.28613C375.023 411.149 376.409 391.955 614.767 340.483C376.409 391.944 367.228 375.034 777.091 639.328Z" fill="url(#paint1_radial_130_3)"/>
<path d="M639.328 1.27517C600.984 60.7427 568.55 111.395 540.973 153.797C568.218 111.184 600.984 60.7427 639.328 1.27517ZM1.27517 139.049C60.787 177.427 111.461 209.872 153.886 237.46C111.251 210.193 60.787 177.427 1.27517 139.049ZM340.472 163.599C347.945 198.206 354.731 227.813 359.632 252.34C353.977 227.979 347.945 198.206 340.472 163.599ZM540.973 153.797C425.055 335.083 408.777 374.835 485.343 366.385C496.83 365.121 510.391 362.771 526.037 359.644C406.936 387.309 417.137 406.082 624.481 540.918C512.52 469.331 454.561 435.766 428.614 438.627C406.271 441.088 407.657 470.573 418.734 526.037C406.836 474.797 396.568 447.486 377.995 449.527C353.401 452.232 314.247 506.4 237.393 624.581C353.312 443.295 369.59 403.543 293.024 411.992C281.536 413.256 267.975 415.607 252.329 418.734C371.431 391.068 361.229 372.296 153.886 237.46C265.846 309.047 323.806 342.623 349.753 339.751C372.096 337.278 370.71 307.805 359.632 252.34C371.53 303.58 381.798 330.902 400.372 328.851C424.966 326.134 464.119 271.978 540.973 153.797ZM614.767 340.472C580.171 347.945 550.554 354.731 526.037 359.632C550.399 353.977 580.171 347.945 614.767 340.472ZM252.329 418.734C227.968 424.389 198.195 430.421 163.599 437.895C198.195 430.421 227.813 423.635 252.329 418.734ZM418.734 526.026C424.389 550.388 430.421 580.16 437.895 614.767C430.421 580.16 423.635 550.554 418.734 526.026ZM624.481 540.918C667.116 568.185 717.58 600.951 777.091 639.328C717.58 600.951 666.905 568.506 624.481 540.918ZM237.393 624.569C210.149 667.182 177.382 717.624 139.038 777.091C177.382 717.624 209.816 666.972 237.393 624.569ZM637.343 0C623.882 20.8796 611.108 40.6503 599.011 59.3566C576.29 94.5071 556.675 124.867 538.989 152.522C463.676 268.33 423.691 323.905 400.105 326.511C383.118 328.385 373.238 300.553 361.928 251.853C358.745 235.929 354.853 218.243 350.34 197.752C347.912 186.708 345.395 175.276 342.767 163.111L338.165 164.109C340.782 176.251 343.199 187.672 345.539 198.717C349.886 219.264 353.645 237.016 357.326 252.839C365.121 291.893 368.603 320.235 360.253 331.634C357.792 334.994 354.277 336.879 349.498 337.411C324.327 340.194 264.294 305.266 155.161 235.486C127.628 217.578 97.2127 198.007 61.9957 175.353C43.2561 163.3 23.4521 150.548 2.55035 137.076L0 141.034C20.9129 154.518 40.7058 167.314 59.4342 179.412C94.5958 202.132 124.956 221.758 152.611 239.445C212.943 278.676 259.171 309.69 288.633 333.508C316.321 355.885 328.319 371.375 326.4 382.275C323.828 396.901 295.962 406.193 251.83 416.45C235.907 419.632 218.199 423.535 197.696 428.048C186.663 430.477 175.253 432.994 163.1 435.611L164.098 440.212C176.24 437.584 187.672 435.167 198.728 432.828C219.264 428.481 237.005 424.722 252.828 421.052C269.938 417.636 282.8 415.507 293.29 414.343C317.352 411.682 330.27 414.01 335.16 421.894C340.993 431.286 336.214 450.491 320.102 482.338C302.993 516.169 273.874 563.161 235.419 623.316C217.534 650.827 197.974 681.22 175.331 716.415C163.278 735.155 150.537 754.959 137.065 775.838L141.023 778.389C154.485 757.509 167.27 737.738 179.356 719.032C202.076 683.882 221.692 653.521 239.378 625.867C314.691 510.059 354.676 454.483 378.25 451.878C395.238 450.004 405.117 477.836 416.439 526.536C419.621 542.459 423.513 560.145 428.026 580.637C430.455 591.681 432.972 603.113 435.6 615.277L440.201 614.279C437.584 602.137 435.167 590.716 432.828 579.672C428.481 559.125 424.722 541.373 421.04 525.549C413.245 486.496 409.764 458.154 418.113 446.755C420.575 443.395 424.09 441.51 428.869 440.978C454.051 438.205 514.084 473.134 623.206 542.903C650.738 560.811 681.154 580.371 716.371 603.036C735.11 615.1 754.926 627.841 775.827 641.313L778.378 637.354C757.465 623.871 737.683 611.086 718.955 598.977C683.793 576.257 653.433 556.63 625.767 538.944C565.435 499.713 519.207 468.699 489.745 444.881C462.057 422.504 450.059 407.014 451.977 396.114C454.55 381.488 482.415 372.196 526.547 361.939C542.47 358.757 560.179 354.853 580.692 350.34C591.725 347.912 603.135 345.395 615.288 342.778L614.29 338.176C602.149 340.804 590.716 343.222 579.661 345.561C559.125 349.908 541.384 353.667 525.56 357.337C508.451 360.752 495.599 362.881 485.099 364.046C461.037 366.707 448.119 364.378 443.229 356.494C437.396 347.103 442.175 327.897 458.287 296.051C475.396 262.22 504.515 215.227 542.969 155.072C560.855 127.562 580.415 97.1683 603.058 61.9846C615.111 43.2451 627.852 23.441 641.324 2.55035L637.366 0L637.343 0Z" fill="url(#paint2_linear_130_3)"/>
<path d="M777.091 639.328C367.228 375.034 386.422 376.42 437.895 614.778C386.433 376.42 403.343 367.239 139.049 777.102C403.343 367.239 401.957 386.433 163.599 437.906C401.957 386.444 411.138 403.354 1.27515 139.06C411.138 403.354 391.944 401.968 340.472 163.61C391.933 401.968 375.023 411.149 639.317 1.28613C375.023 411.149 376.409 391.955 614.767 340.483C376.409 391.944 367.228 375.034 777.091 639.328Z" fill="#EC028B"/>
<path opacity="0.8" d="M335.97 418.967C325.979 406.348 292.093 410.651 252.584 418.701C291.849 409.752 324.039 400.017 328.385 384.127C336.912 357.005 255.578 304.844 191.498 261.888C260.812 302.538 322.508 345.395 352.68 339.252C374.303 335.271 369.002 292.148 359.888 252.296C369.945 299.444 381.399 328.906 396.779 328.784C360.83 346.692 339.163 379.858 335.959 418.956L335.97 418.967Z" fill="url(#paint3_linear_130_3)"/>
<path d="M369.254 295.158C371.585 294.637 367.947 269.486 361.129 238.982C354.31 208.478 346.893 184.172 344.563 184.693C342.232 185.214 345.87 210.365 352.688 240.869C359.507 271.373 366.924 295.679 369.254 295.158Z" fill="url(#paint4_radial_130_3)"/>
<path d="M540.245 173.923C569.371 133.256 589.171 97.5604 584.471 94.1943C579.771 90.8282 552.351 121.066 523.225 161.733C494.1 202.4 474.299 238.096 478.999 241.462C483.699 244.828 511.12 214.59 540.245 173.923Z" fill="url(#paint5_radial_130_3)"/>
<path d="M172.466 741.507C198.715 700.918 216.279 665.612 211.697 662.649C207.115 659.686 182.122 690.188 155.874 730.777C129.626 771.366 112.062 806.672 116.644 809.635C121.226 812.598 146.218 782.096 172.466 741.507Z" fill="url(#paint6_radial_130_3)"/>
<path d="M197.359 488.098C485.035 743.305 470.237 739.919 458.756 547.985C470.237 739.919 455.949 745.048 711.16 457.383C455.953 745.059 459.339 730.261 651.273 718.78C459.339 730.261 454.21 715.973 741.875 971.184C454.199 715.977 468.997 719.363 480.478 911.297C468.997 719.363 483.285 714.234 228.074 1001.9C483.281 714.223 479.895 729.021 287.961 740.502C479.895 729.021 485.024 743.309 197.359 488.098Z" fill="url(#paint7_radial_130_3)"/>
<path d="M197.359 488.098C485.035 743.305 470.237 739.919 458.756 547.985C470.237 739.919 455.949 745.048 711.16 457.383C455.953 745.059 459.339 730.261 651.273 718.78C459.339 730.261 454.21 715.973 741.875 971.184C454.199 715.977 468.997 719.363 480.478 911.297C468.997 719.363 483.285 714.234 228.074 1001.9C483.281 714.223 479.895 729.021 287.961 740.502C479.895 729.021 485.024 743.309 197.359 488.098Z" fill="url(#paint8_radial_130_3)"/>
<path d="M228.085 1001.9C265.108 960.157 296.47 924.584 323.049 894.846C296.694 924.789 265.108 960.157 228.085 1001.9ZM741.882 971.169C700.105 934.111 664.516 902.742 634.768 876.141C664.716 902.508 700.116 934.106 741.882 971.169ZM480.478 911.297C478.814 883.422 477.074 859.541 476.204 839.835C477.686 859.498 478.814 883.422 480.478 911.297ZM323.054 894.857C435.168 767.503 452.635 738.477 391.942 735.866C382.832 735.475 371.989 735.682 359.413 736.232C455.552 728.986 449.86 713.116 304.461 583.131C383.118 652.369 424.252 685.494 444.822 686.377C462.532 687.134 464.989 663.991 463.015 619.441C466.138 660.807 470.85 683.319 485.573 683.952C505.062 684.797 542.081 647.294 616.165 564.419C504.051 691.773 486.584 720.799 547.277 723.41C556.387 723.801 567.23 723.594 579.806 723.044C483.667 730.29 489.359 746.16 634.757 876.145C556.101 806.907 514.967 773.782 494.397 772.899C476.687 772.142 474.229 795.285 476.204 839.835C473.081 798.469 468.364 775.946 453.646 775.324C434.161 774.49 397.138 811.982 323.054 894.857ZM287.961 740.502C315.821 738.832 339.718 737.099 359.413 736.232C339.749 737.714 315.821 738.832 287.961 740.502ZM579.822 723.05C599.485 721.568 623.413 720.451 651.273 718.781C623.413 720.451 599.517 722.184 579.822 723.05ZM463.031 619.448C461.549 599.784 460.42 575.861 458.757 547.986C460.42 575.861 462.16 599.742 463.031 619.448ZM304.472 583.126C274.525 556.76 239.125 525.161 197.359 488.098C239.136 525.157 274.725 556.525 304.472 583.126ZM616.18 564.426C642.536 534.483 674.122 499.114 711.145 457.376C674.122 499.114 642.76 534.687 616.18 564.426ZM229.47 1003.13C242.47 988.48 254.796 974.604 266.476 961.476C288.402 936.814 307.338 915.504 324.445 896.076C397.048 814.865 434.893 776.361 453.581 777.159C467.049 777.735 471.397 800.612 474.372 839.935C474.943 852.721 475.851 866.974 476.905 883.489C477.469 892.392 478.067 901.602 478.646 911.397L482.354 911.179C481.769 901.399 481.254 892.207 480.759 883.315C479.835 866.773 479.046 852.497 478.08 839.717C476.693 808.344 477.383 785.839 485.261 777.957C487.578 775.634 490.552 774.584 494.336 774.745C514.29 775.595 556.878 810.03 633.544 877.521C652.854 894.779 674.203 913.686 698.927 935.575C712.083 947.23 725.988 959.531 740.658 972.549L743.123 969.769C728.454 956.751 714.553 944.396 701.415 932.721C676.748 910.783 655.438 891.847 636.01 874.741C593.706 836.921 561.401 807.199 541.301 785.106C522.408 764.346 514.919 750.819 517.722 742.567C521.481 731.478 544.322 727.581 579.937 724.889C592.728 724.329 607.003 723.412 623.518 722.358C632.406 721.787 641.609 721.204 651.389 720.619L651.17 716.911C641.391 717.496 632.187 718.015 623.291 718.5C606.759 719.419 592.488 720.219 579.719 721.181C565.975 721.793 555.695 721.901 547.382 721.547C528.311 720.724 518.525 717.362 515.65 710.638C512.237 702.619 518.262 688.227 534.635 665.338C552.023 641.026 580.374 607.902 617.572 565.645C634.823 546.351 653.712 525.022 675.579 500.307C687.223 487.155 699.536 473.246 712.536 458.596L709.756 456.13C696.755 470.78 684.418 484.661 672.75 497.784C650.823 522.446 631.887 543.756 614.791 563.18C542.188 644.391 504.344 682.895 485.667 682.093C472.198 681.516 467.851 658.639 464.876 619.317C464.305 606.53 463.397 592.277 462.342 575.762C461.778 566.859 461.18 557.649 460.602 547.854L456.894 548.073C457.479 557.852 457.993 567.045 458.484 575.926C459.408 592.468 460.197 606.744 461.163 619.524C462.55 650.897 461.86 673.401 453.971 681.288C451.654 683.611 448.68 684.661 444.896 684.5C424.938 683.639 382.35 649.204 305.688 581.724C286.378 564.466 265.029 545.559 240.305 523.67C227.149 512.015 213.239 499.703 198.574 486.696L196.108 489.476C210.778 502.494 224.674 514.838 237.817 526.524C262.495 548.457 283.794 567.398 303.233 584.5C345.537 622.32 377.842 652.041 397.942 674.135C416.835 694.895 424.319 708.41 421.521 716.674C417.762 727.762 394.921 731.659 359.306 734.352C346.515 734.912 332.24 735.829 315.725 736.883C306.837 737.453 297.634 738.036 287.854 738.621L288.073 742.329C297.852 741.744 307.056 741.225 315.952 740.741C332.484 739.821 346.755 739.021 359.524 738.06C373.268 737.447 383.548 737.339 391.861 737.694C410.932 738.517 420.718 741.879 423.593 748.602C427.017 756.617 420.981 771.013 404.608 793.902C387.209 818.219 358.869 851.338 321.671 893.595C304.42 912.889 285.531 934.219 263.664 958.934C252.02 972.085 239.707 985.995 226.696 1000.65L229.476 1003.11L229.47 1003.13Z" fill="url(#paint9_linear_130_3)"/>
<path d="M197.359 488.098C485.035 743.305 470.237 739.919 458.756 547.985C470.237 739.919 455.949 745.048 711.16 457.383C455.953 745.059 459.339 730.261 651.273 718.78C459.339 730.261 454.21 715.973 741.875 971.184C454.199 715.977 468.997 719.363 480.478 911.297C468.997 719.363 483.285 714.234 228.074 1001.9C483.281 714.223 479.895 729.021 287.961 740.502C479.895 729.021 485.024 743.309 197.359 488.098Z" fill="#5DE2D5"/>
<path opacity="0.8" d="M514.672 712.817C520.944 723.847 547.862 724.571 579.625 723.04C547.953 725.304 521.703 729.016 516.395 740.873C506.493 760.989 563.617 811.407 608.391 852.574C559.252 812.57 516.316 771.761 492.071 772.918C474.741 773.417 473.686 807.663 476.007 839.825C473.83 801.872 468.446 777.542 456.447 775.781C486.612 766.15 507.483 742.902 514.672 712.817Z" fill="url(#paint10_linear_130_3)"/>
<path d="M480.198 849.575C478.545 824.983 475.681 805.15 473.801 805.276C471.921 805.402 471.737 825.441 473.389 850.032C475.042 874.624 477.906 894.458 479.786 894.331C481.667 894.205 481.851 874.167 480.198 849.575Z" fill="url(#paint11_radial_130_3)"/>
<path d="M337.823 890.794C365.41 862.599 385.133 837.159 381.876 833.972C378.62 830.785 353.616 851.059 326.029 879.254C298.442 907.45 278.719 932.89 281.976 936.077C285.233 939.263 310.237 918.99 337.823 890.794Z" fill="url(#paint12_radial_130_3)"/>
<path d="M646.18 543.496C671.512 515.019 689.439 489.614 686.221 486.751C683.003 483.888 659.859 504.653 634.527 533.13C609.195 561.607 591.268 587.012 594.486 589.875C597.704 592.738 620.849 571.973 646.18 543.496Z" fill="url(#paint13_radial_130_3)"/>
<defs>
<radialGradient id="paint0_radial_130_3" cx="0" cy="0" r="1" gradientUnits="userSpaceOnUse" gradientTransform="translate(389.19 389.177) rotate(1.16) scale(392.898 392.898)">
<stop stop-color="white" stop-opacity="0"/>
<stop offset="1" stop-color="white" stop-opacity="0.2"/>
</radialGradient>
<radialGradient id="paint1_radial_130_3" cx="0" cy="0" r="1" gradientUnits="userSpaceOnUse" gradientTransform="translate(389.183 389.206) rotate(-6.3) scale(358.113 358.113)">
<stop stop-color="white" stop-opacity="0"/>
<stop offset="1" stop-color="white" stop-opacity="0.2"/>
</radialGradient>
<linearGradient id="paint2_linear_130_3" x1="101.964" y1="747.715" x2="676.413" y2="30.685" gradientUnits="userSpaceOnUse">
<stop stop-color="white" stop-opacity="0.6"/>
<stop offset="0.29" stop-color="white" stop-opacity="0.1"/>
<stop offset="0.8" stop-color="white" stop-opacity="0.8"/>
<stop offset="1" stop-color="white" stop-opacity="0.3"/>
</linearGradient>
<linearGradient id="paint3_linear_130_3" x1="289.266" y1="251.117" x2="308.138" y2="422.06" gradientUnits="userSpaceOnUse">
<stop stop-color="white" stop-opacity="0"/>
<stop offset="0.09" stop-color="white" stop-opacity="0.02"/>
<stop offset="0.22" stop-color="white" stop-opacity="0.09"/>
<stop offset="0.36" stop-color="white" stop-opacity="0.2"/>
<stop offset="0.52" stop-color="white" stop-opacity="0.35"/>
<stop offset="0.68" stop-color="white" stop-opacity="0.55"/>
<stop offset="0.86" stop-color="white" stop-opacity="0.78"/>
<stop offset="1" stop-color="white"/>
</linearGradient>
<radialGradient id="paint4_radial_130_3" cx="0" cy="0" r="1" gradientUnits="userSpaceOnUse" gradientTransform="translate(387.192 224.949) rotate(77.4) scale(56.4834 4.27904)">
<stop stop-color="white"/>
<stop offset="0.01" stop-color="white" stop-opacity="0.97"/>
<stop offset="0.09" stop-color="white" stop-opacity="0.77"/>
<stop offset="0.17" stop-color="white" stop-opacity="0.59"/>
<stop offset="0.26" stop-color="white" stop-opacity="0.43"/>
<stop offset="0.35" stop-color="white" stop-opacity="0.3"/>
<stop offset="0.44" stop-color="white" stop-opacity="0.19"/>
<stop offset="0.55" stop-color="white" stop-opacity="0.1"/>
<stop offset="0.66" stop-color="white" stop-opacity="0.05"/>
<stop offset="0.8" stop-color="white" stop-opacity="0.01"/>
<stop offset="1" stop-color="white" stop-opacity="0"/>
</radialGradient>
<radialGradient id="paint5_radial_130_3" cx="0" cy="0" r="1" gradientUnits="userSpaceOnUse" gradientTransform="translate(508.523 148.039) rotate(-54.39) scale(90.6549 10.5764)">
<stop stop-color="white"/>
<stop offset="0.01" stop-color="white" stop-opacity="0.97"/>
<stop offset="0.09" stop-color="white" stop-opacity="0.77"/>
<stop offset="0.17" stop-color="white" stop-opacity="0.59"/>
<stop offset="0.26" stop-color="white" stop-opacity="0.43"/>
<stop offset="0.35" stop-color="white" stop-opacity="0.3"/>
<stop offset="0.44" stop-color="white" stop-opacity="0.19"/>
<stop offset="0.55" stop-color="white" stop-opacity="0.1"/>
<stop offset="0.66" stop-color="white" stop-opacity="0.05"/>
<stop offset="0.8" stop-color="white" stop-opacity="0.01"/>
<stop offset="1" stop-color="white" stop-opacity="0"/>
</radialGradient>
<radialGradient id="paint6_radial_130_3" cx="0" cy="0" r="1" gradientUnits="userSpaceOnUse" gradientTransform="translate(94.2368 699.416) rotate(-57.11) scale(87.2885 10.1837)">
<stop stop-color="white"/>
<stop offset="0.01" stop-color="white" stop-opacity="0.97"/>
<stop offset="0.09" stop-color="white" stop-opacity="0.77"/>
<stop offset="0.17" stop-color="white" stop-opacity="0.59"/>
<stop offset="0.26" stop-color="white" stop-opacity="0.43"/>
<stop offset="0.35" stop-color="white" stop-opacity="0.3"/>
<stop offset="0.44" stop-color="white" stop-opacity="0.19"/>
<stop offset="0.55" stop-color="white" stop-opacity="0.1"/>
<stop offset="0.66" stop-color="white" stop-opacity="0.05"/>
<stop offset="0.8" stop-color="white" stop-opacity="0.01"/>
<stop offset="1" stop-color="white" stop-opacity="0"/>
</radialGradient>
<radialGradient id="paint7_radial_130_3" cx="0" cy="0" r="1" gradientUnits="userSpaceOnUse" gradientTransform="translate(469.715 729.422) rotate(-170.075) scale(309.817)">
<stop stop-color="white" stop-opacity="0"/>
<stop offset="1" stop-color="white" stop-opacity="0.2"/>
</radialGradient>
<radialGradient id="paint8_radial_130_3" cx="0" cy="0" r="1" gradientUnits="userSpaceOnUse" gradientTransform="translate(469.869 728.973) rotate(-177.535) scale(282.379)">
<stop stop-color="white" stop-opacity="0"/>
<stop offset="1" stop-color="white" stop-opacity="0.2"/>
</radialGradient>
<linearGradient id="paint9_linear_130_3" x1="736.778" y1="484.084" x2="202.949" y2="973.851" gradientUnits="userSpaceOnUse">
<stop stop-color="white" stop-opacity="0.6"/>
<stop offset="0.29" stop-color="white" stop-opacity="0.1"/>
<stop offset="0.8" stop-color="white" stop-opacity="0.8"/>
<stop offset="1" stop-color="white" stop-opacity="0.3"/>
</linearGradient>
<linearGradient id="paint10_linear_130_3" x1="531.153" y1="848.592" x2="536.986" y2="713.098" gradientUnits="userSpaceOnUse">
<stop stop-color="white" stop-opacity="0"/>
<stop offset="0.09" stop-color="white" stop-opacity="0.02"/>
<stop offset="0.22" stop-color="white" stop-opacity="0.09"/>
<stop offset="0.36" stop-color="white" stop-opacity="0.2"/>
<stop offset="0.52" stop-color="white" stop-opacity="0.35"/>
<stop offset="0.68" stop-color="white" stop-opacity="0.55"/>
<stop offset="0.86" stop-color="white" stop-opacity="0.78"/>
<stop offset="1" stop-color="white"/>
</linearGradient>
<radialGradient id="paint11_radial_130_3" cx="0" cy="0" r="1" gradientUnits="userSpaceOnUse" gradientTransform="translate(512.127 862.242) rotate(-93.8451) scale(44.5348 3.37385)">
<stop stop-color="white"/>
<stop offset="0.01" stop-color="white" stop-opacity="0.97"/>
<stop offset="0.09" stop-color="white" stop-opacity="0.77"/>
<stop offset="0.17" stop-color="white" stop-opacity="0.59"/>
<stop offset="0.26" stop-color="white" stop-opacity="0.43"/>
<stop offset="0.35" stop-color="white" stop-opacity="0.3"/>
<stop offset="0.44" stop-color="white" stop-opacity="0.19"/>
<stop offset="0.55" stop-color="white" stop-opacity="0.1"/>
<stop offset="0.66" stop-color="white" stop-opacity="0.05"/>
<stop offset="0.8" stop-color="white" stop-opacity="0.01"/>
<stop offset="1" stop-color="white" stop-opacity="0"/>
</radialGradient>
<radialGradient id="paint12_radial_130_3" cx="0" cy="0" r="1" gradientUnits="userSpaceOnUse" gradientTransform="translate(297.837 859.365) rotate(134.375) scale(71.4857 8.34)">
<stop stop-color="white"/>
<stop offset="0.01" stop-color="white" stop-opacity="0.97"/>
<stop offset="0.09" stop-color="white" stop-opacity="0.77"/>
<stop offset="0.17" stop-color="white" stop-opacity="0.59"/>
<stop offset="0.26" stop-color="white" stop-opacity="0.43"/>
<stop offset="0.35" stop-color="white" stop-opacity="0.3"/>
<stop offset="0.44" stop-color="white" stop-opacity="0.19"/>
<stop offset="0.55" stop-color="white" stop-opacity="0.1"/>
<stop offset="0.66" stop-color="white" stop-opacity="0.05"/>
<stop offset="0.8" stop-color="white" stop-opacity="0.01"/>
<stop offset="1" stop-color="white" stop-opacity="0"/>
</radialGradient>
<radialGradient id="paint13_radial_130_3" cx="0" cy="0" r="1" gradientUnits="userSpaceOnUse" gradientTransform="translate(542.497 429.816) rotate(131.655) scale(68.8323 8.03043)">
<stop stop-color="white"/>
<stop offset="0.01" stop-color="white" stop-opacity="0.97"/>
<stop offset="0.09" stop-color="white" stop-opacity="0.77"/>
<stop offset="0.17" stop-color="white" stop-opacity="0.59"/>
<stop offset="0.26" stop-color="white" stop-opacity="0.43"/>
<stop offset="0.35" stop-color="white" stop-opacity="0.3"/>
<stop offset="0.44" stop-color="white" stop-opacity="0.19"/>
<stop offset="0.55" stop-color="white" stop-opacity="0.1"/>
<stop offset="0.66" stop-color="white" stop-opacity="0.05"/>
<stop offset="0.8" stop-color="white" stop-opacity="0.01"/>
<stop offset="1" stop-color="white" stop-opacity="0"/>
</radialGradient>
</defs>
</svg>
