<svg width="54" height="55" viewBox="0 0 54 55" fill="none" xmlns="http://www.w3.org/2000/svg">
<path d="M26.8923 55H27.1076C37.8318 55 44.0566 53.9004 48.466 49.5406C52.9618 44.916 54 38.5334 54 27.6538V27.3462C54 16.4699 52.9618 10.13 48.466 5.45941C44.0598 1.09974 37.7901 0 27.1108 0H26.8955C16.1714 0 9.9432 1.09974 5.53401 5.45941C1.03803 10.0842 0 16.4699 0 27.3462V27.6538C0 38.5301 1.03803 44.8701 5.53401 49.5406C9.90144 53.9004 16.1714 55 26.8923 55Z" fill="white"/>
<path d="M47.9428 27.0311L47.9444 27.0294C47.9435 26.8207 47.7767 26.6482 47.5715 26.6384C40.1906 26.3536 35.6986 25.3948 32.556 22.1942C29.4069 18.9871 28.4686 14.4087 28.1891 6.87518C28.1826 6.66573 28.0123 6.49557 27.8034 6.49557H26.9423C26.7367 6.49557 26.5663 6.66573 26.5567 6.87518C26.2771 14.4054 25.3389 18.9871 22.1899 22.1942C19.0441 25.3981 14.5551 26.3536 7.17423 26.6384C6.96858 26.6449 6.8015 26.8183 6.8015 27.0311V27.9081C6.8015 28.1176 6.96858 28.291 7.17423 28.3008C14.5551 28.5855 19.0473 29.5444 22.1899 32.745C25.3324 35.9456 26.2707 40.511 26.5535 48.0148C26.5599 48.2243 26.7302 48.3946 26.9391 48.3946H27.8034C28.0091 48.3946 28.1794 48.2243 28.1891 48.0148C28.4718 40.511 29.4101 35.9456 32.5528 32.745C35.6986 29.5411 40.1874 28.5855 47.5683 28.3008C47.774 28.2943 47.9412 28.1209 47.9412 27.9081V27.0327L47.9428 27.0311Z" fill="black"/>
</svg>
