<svg width="371" height="363" viewBox="0 0 371 363" fill="none" xmlns="http://www.w3.org/2000/svg">
<rect x="0.225952" y="0.59375" width="370.226" height="361.594" fill="#B2EFF8"/>
<g clip-path="url(#clip0_1_812)">
<path opacity="0.9" d="M181.433 122.832V188.777C181.547 201.38 162.874 209.476 152.208 215.218C132.077 227.046 119.552 243.238 114.462 263.764C109.4 302.665 122.068 331.776 160.072 346.848C168.107 350.695 211.115 350.695 221.581 346.848C255.838 328.13 270.05 300.454 261.643 262.731C256.01 241.142 242.141 225.524 221.609 214.701C212.688 209.361 194.472 204.624 194.444 189.322L194.358 122.918H205.138V120.22H172.568V122.947L181.461 122.832H181.433Z" fill="url(#paint0_radial_1_812)"/>
<path opacity="0.9" d="M185.522 112.612L184.835 136.727C184.835 138.881 191.355 138.881 191.355 136.727L191.269 112.698C204.681 109.339 210.371 101.272 210.171 89.6447C209.084 76.9267 202.193 70.5533 188.238 70.6107C175.428 71.1562 167.65 77.4147 166.391 89.616C164.99 102.966 173.226 109.282 185.55 112.612H185.522Z" fill="url(#paint1_radial_1_812)"/>
</g>
<defs>
<radialGradient id="paint0_radial_1_812" cx="0" cy="0" r="1" gradientUnits="userSpaceOnUse" gradientTransform="translate(188.696 234.969) scale(96.7673 97.151)">
<stop offset="0.09" stop-color="white" stop-opacity="0.8"/>
<stop offset="0.43" stop-color="#EC7E8F"/>
<stop offset="0.53" stop-color="#E96296"/>
<stop offset="0.65" stop-color="#E7479E"/>
<stop offset="0.84" stop-color="#EA1A91" stop-opacity="0.87"/>
<stop offset="0.96" stop-color="#EC028B" stop-opacity="0.8"/>
</radialGradient>
<radialGradient id="paint1_radial_1_812" cx="0" cy="0" r="1" gradientUnits="userSpaceOnUse" gradientTransform="translate(188.221 104.487) rotate(90) scale(28.5941 23.3546)">
<stop offset="0.09" stop-color="white" stop-opacity="0.8"/>
<stop offset="0.41" stop-color="#EC7E8F"/>
<stop offset="0.5" stop-color="#E96296"/>
<stop offset="0.62" stop-color="#E7479E"/>
<stop offset="0.83" stop-color="#E51A91"/>
<stop offset="0.96" stop-color="#E4028B"/>
</radialGradient>
<clipPath id="clip0_1_812">
<rect width="150.584" height="279.108" fill="white" transform="translate(113.404 70.6107)"/>
</clipPath>
</defs>
</svg>
