<svg width="55" height="55" viewBox="0 0 55 55" fill="none" xmlns="http://www.w3.org/2000/svg">
<path d="M6.56716 34.8881L9.02985 11.903L48.8433 10.6716L50.8955 38.5821L41.8657 45.1493L20.5224 42.6866L6.56716 34.8881Z" fill="black"/>
<path d="M3.85 3.85C3.91433e-07 7.73667 0 13.9517 0 26.4V28.6C0 41.03 3.91433e-07 47.245 3.85 51.15C7.73667 55 13.9517 55 26.4 55H28.6C41.03 55 47.245 55 51.15 51.15C55 47.2633 55 41.0483 55 28.6V26.4C55 13.97 55 7.755 51.15 3.85C47.2633 3.91433e-07 41.0483 0 28.6 0H26.4C13.97 0 7.755 3.91433e-07 3.85 3.85ZM9.27706 16.7389H15.5837C15.7854 27.2256 20.4054 31.6623 24.072 32.5789V16.7389H29.9936V25.7773C33.6053 25.3923 37.4186 21.2672 38.702 16.7205H44.6053C44.1241 19.0741 43.1625 21.3031 41.7808 23.2684C40.3993 25.2334 38.6271 26.8926 36.5753 28.1423C38.8651 29.2817 40.8873 30.8938 42.5083 32.8723C44.1296 34.8504 45.313 37.1498 45.9803 39.6189H39.472C38.0786 35.2739 34.5953 31.9006 29.9936 31.4423V39.6189H29.2603C16.7204 39.6189 9.5704 31.0389 9.27706 16.7389Z" fill="white"/>
</svg>
