<svg width="371" height="363" viewBox="0 0 371 363" fill="none" xmlns="http://www.w3.org/2000/svg">
<rect y="0.59375" width="370.226" height="361.594" fill="#B2EFF8"/>
<g clip-path="url(#clip0_1_821)">
<path opacity="0.9" d="M183.488 64.4213V88.4469C183.488 90.0418 191.524 90.0418 191.524 88.4469V64.4985C202.914 62.5435 209.134 55.9069 209.748 44.2285C209.671 32.4215 202.069 22.4923 187.89 21.6949C171.228 21.8749 165.085 31.5469 165.316 45.2317C165.776 55.3667 172.661 63.3152 183.488 64.4471V64.4213Z" fill="url(#paint0_radial_1_821)"/>
<g opacity="0.9">
<path d="M182.438 75.4052H193.982C201.865 174.852 211.77 278.414 240.717 339.224C240.768 352.934 129.509 353.372 129.458 339.661C131.07 336.086 132.657 332.381 134.167 328.549C158.891 266.53 170.588 174.311 182.413 75.4052H182.438Z" fill="url(#paint1_radial_1_821)"/>
<path d="M172.712 75.3538V73.5017H204.117V75.4566L172.712 75.3538Z" fill="url(#paint2_radial_1_821)"/>
</g>
</g>
<defs>
<radialGradient id="paint0_radial_1_821" cx="0" cy="0" r="1" gradientUnits="userSpaceOnUse" gradientTransform="translate(187.532 55.6754) scale(28.6147 28.7587)">
<stop offset="0.36" stop-color="white"/>
<stop offset="0.44" stop-color="#FDF598"/>
<stop offset="0.54" stop-color="#FCEA10"/>
<stop offset="0.66" stop-color="#FACD21"/>
<stop offset="0.79" stop-color="#F9B233"/>
<stop offset="0.85" stop-color="#EA9822"/>
<stop offset="0.95" stop-color="#D6760A"/>
<stop offset="1" stop-color="#CF6902"/>
</radialGradient>
<radialGradient id="paint1_radial_1_821" cx="0" cy="0" r="1" gradientUnits="userSpaceOnUse" gradientTransform="translate(185.1 212.562) scale(104.221 104.745)">
<stop offset="0.36" stop-color="white"/>
<stop offset="0.44" stop-color="#FDF598"/>
<stop offset="0.54" stop-color="#FCEA10"/>
<stop offset="0.66" stop-color="#FACD21"/>
<stop offset="0.79" stop-color="#F9B233"/>
<stop offset="0.85" stop-color="#EA9822"/>
<stop offset="0.95" stop-color="#D6760A"/>
<stop offset="1" stop-color="#CF6902"/>
</radialGradient>
<radialGradient id="paint2_radial_1_821" cx="0" cy="0" r="1" gradientUnits="userSpaceOnUse" gradientTransform="translate(188.428 74.4792) scale(11.1336 11.1897)">
<stop offset="0.36" stop-color="white"/>
<stop offset="0.44" stop-color="#FDF598"/>
<stop offset="0.54" stop-color="#FCEA10"/>
<stop offset="0.66" stop-color="#FACD21"/>
<stop offset="0.79" stop-color="#F9B233"/>
<stop offset="0.85" stop-color="#EA9822"/>
<stop offset="0.95" stop-color="#D6760A"/>
<stop offset="1" stop-color="#CF6902"/>
</radialGradient>
<clipPath id="clip0_1_821">
<rect width="111.26" height="328.024" fill="white" transform="translate(129.483 21.6949)"/>
</clipPath>
</defs>
</svg>
